<?xml version="1.0" encoding="UTF-8"?>
<svg id="Layer_1" data-name="Layer 1" xmlns="http://www.w3.org/2000/svg" viewBox="0 0 145 173">
  <defs>
    <style>
      .cls-1 {
        fill: #191919;
        stroke-width: 0px;
      }
    </style>
  </defs>
  <g>
    <path class="cls-1" d="M44.44,102.55c-.63-.4-1.24-.23-2.52-.19-.53.01-.55.29-.55.57,0,1.58.24,1.76,2.18,1.64.38-.05.74-.05,1.07-.15.83-.25.76-1.06,1.57-.59.22.13.54.24.79.2,1.7-.28,1.69-.29,1.58-1.8-.1-1.31.38-1.88-.49-2.1-1.12-.29-1.5-.54-2.03-.24-.47.27-.92.15-1.1-.32-.14-.38-.23-.35-2.51-.94-.4-.1-.71,0-.77.4-.13.84-.38,2.02.37,2.1.85.09,1.73.29,2.53-.31.38-.28,1.07-.06,1.39.36.57.73-.24,2.17-1.51,1.37Z"/>
    <path class="cls-1" d="M45.39,94.25c-2.35-.4-2.86-.43-2.94.34-.15,1.41-.69,2.12.3,2.07,1.67-.08,2.49-.04,2.8-.8.15-.38.75-.37,1.01,0,.32.46.63.42,2.46.25.38-.04.55-.23.62-.58.51-2.55,1.21-2.36-1.32-3.22-.5-.17-.86.68-1.38-.08-.38-.56-.47-.54-2.62-1.38-.37-.15-.6-.02-.77.32-.8,1.55-.69,1.78,1.15,2.07.71.11,1.42.33,2.17.04.14-.05.5.11.57.25.22.41.12.84-.28,1.15-.66.5-.95-.29-1.77-.43Z"/>
    <path class="cls-1" d="M48.48,88.52c-.73.4-.79-.48-1.49-.78-2.05-.88-2.48-.99-2.75-.21-.51,1.45-1.18,2.09-.27,2.23,1.55.24,2.27.43,2.74-.3.24-.36.77-.25.91.19.12.4.4.51.74.56,1.6.23,1.85.32,2.13-.31,1.11-2.52,1.72-2.24-.34-3.63-.4-.27-.96.55-1.23-.35-.19-.66-.29-.66-2.01-1.95-.3-.22-.53-.14-.78.18-1.13,1.47-1.09,1.73.49,2.39.61.26,1.19.62,1.96.46.14-.03.42.21.45.37.09.47-.11.9-.56,1.15Z"/>
    <path class="cls-1" d="M46.23,110.07c-.46-.22-1.09.03-3.33.27-.42.05-.54.21-.44.55.6,1.97.63,1.86,2.46,1.31,1.98-.6,2.17-.62,2.3-1.09.08-.29.42-.26.72-.13.37.17,1.81-.36,1.94-.72.13-.38-.28-1.17-.62-2.51-.09-.34-.25-.51-.66-.46-.55.07-1.14-.11-1.61.35-.14.14-1.19-.33-1.47-.36-.99-.1-2-.13-2.99-.23-.77-.07-.75.35-.7.9.13,1.47.28,1.57,2.35,1.3.02.04.03.07.05.11.64-.24,1.29-.46,1.91-.72.99-.42,1.81.6,1.2,1.29-.31.35-.68.34-1.1.14Z"/>
    <path class="cls-1" d="M66.05,94.06s0-.09.01-.14c1.8-.52,1.81-.46,1.53-1.42-.37-1.25-.47-1.28-1.97-.61-1.73.78-1.94.97-2.15,1.32-.23.38-.49.5-.94.32-.48-.19-1.14.15-1.4.27-2.01.94-1,.76-.81,3,.04.43.31.6.82.57,2.12-.14,2.05-.08,2.53-.54.48-.47.98-.47,1.35-.03.35.42.58.44,2.96.29.51-.03.71-.27.63-.66-.18-.85-.19-1.98-.95-1.86-4.15.65-3,.8-3.65,1.03-.27.1-.79.2-.84.12-1.12-1.72.82-1.54,2.9-1.68Z"/>
    <path class="cls-1" d="M62.75,101.31c.57-.24,1.12-.27,1.59.13.37.32,2.64.64,2.96.32.39-.39.53-.96.65-1.46.07-.28-.05-.62-.24-.85-.11-.13-1.16.04-1.85.13,0,0,0-.01,0-.02-1.38.18-1.68.13-1.92.6-.2.39-.75.42-1.05.16-.4-.35-.77-.23-1.4-.13-2.05.3-1.16.23-2.31,2.76-.16.36-.09.62.34.77,1.37.46,1.67.57,2.09.34,1.03-.56.87.46,1.63.63.66.15,1.35.22,2.03.33.54.09.9-.1,1.19-.46,1-1.21.85-1.51-.84-1.7-.78-.09-1.34-.23-1.82,0-1.68.84-2.16-1.09-1.06-1.56Z"/>
    <path class="cls-1" d="M62.23,87.8c.65-.17,1.7-.51,2.37-.87q1.32-.71.61-1.8c-.67-1.02-.75-1.03-1.74-.1-.51.48-1.13.94-1.27,1.78-.08.46-.43.74-1,.77-.29.01-.58.14-.86.23-.12.04-.21.15-.31.23-2.09,1.48-.76,1.74-.67,3.12.03.53.34.66.72.54,2.29-.5,2.6-.49,2.75-1,.1-.34.54-.4.82-.17.43.34.56.13,2.89-.56.46-.14.58-.37.51-.74-.24-1.23-.26-2.55-4.08.22-.55.4-1.39.2-1.62-.4-.18-.49.29-1.09.88-1.24Z"/>
    <path class="cls-1" d="M54.87,84.05c-.63.24-.41.52-.32.82.1.33.1.76.34.96.19.16.68.02,1.04.02,1.22,0,1.12.06,1.87-1.57-.35-.09-.61-.14-.85-.23-.64-.24-.7-.9-.19-1.34.55-.48.67-.62,1.55-3.7.3-1.05-.23-.91-3.24-.81-.46.02-.67.25-.63.65.27,3.01.17,3.13.78,3.84.48.56.4,1.08-.35,1.36Z"/>
    <path class="cls-1" d="M52.19,79.83c-.12-.46-.45-.6-.9-.3-2.07,1.38-2.55,1.67-2.18,2.32,1.6,2.81,1.61,2.78,1.95,2.81.91.09.17.65.46,1.15.31.52.66,1.02,1.01,1.54,1.76-1.12,2.06-1.05,1.8-2.02-.09-.34-.28-.67-.5-.97-.05-.06-.4.1-.58.06-1.07-.25-.75-.54-.59-1.04.25-.79.54.22-.46-3.55Z"/>
    <path class="cls-1" d="M59,84.41c-.86.15-.83-.27-1.57,1.48-.09.21.82.77,1.27,1.21.26.25.49.25.7-.01.42-.53.82-1.07,1.19-1.63.25-.38-.33-1.21.63-1.44.49-.12.76-.4.99-.77,1-1.56,1.61-2.01.87-2.61-1.45-1.19-1.98-1.66-2.28-.96-1.39,3.21-1.42,3.18-1.12,3.65.38.6.12,1.06-.68,1.07Z"/>
    <path class="cls-1" d="M56.05,139.18c-.63.47-.53.78-.85,3.35-.15,1.18.83.93,4.07.59.55-.06.67-.38.54-.79-1.02-3.1-.95-3.01-1.5-3.27-.83-.41-.9-.89-.22-1.5.41-.36.08-.77-.4-1.76-2.07.59-1.59-.36-2.18,1.82.19.09.36.16.52.24.67.38.65.86.02,1.33Z"/>
    <path class="cls-1" d="M61.43,107.7c.23-.15.84-.18,1-.04.66.58,1.58.62,2.39.89.66.22.73-.23,1.31-1.28.37-.68-.32-.54-2.35-.56-.44.25-1.09.77-1.36.34-.35-.57-.99-.48-1.57-.54-1.69-.18-1.27.69-2.11,1.33-.52.4-.47.69.08.99.32.18.59.42.93.58.19.09.48.06.7.12.85.27.73.62,1.05.86,2,1.49,3.48-.44,2.57-.8-.77-.31-1.48-.72-2.44-.64-.21.02-.63-.26-.63-.39.02-.29.17-.68.43-.85Z"/>
    <path class="cls-1" d="M52.33,136.17c.76-1.03,1.49-2.14.45-3.49-.64.53-1.57.84-1.96,1.69-.07.14-.27.33-.42.35-.74.07-2.51,1.15-2.71,1.74-.13.38-.06.5,1.96,3.38.23.33.64.32.82,0,.51-.87,1.26-1.71.78-2.78-.09-.21-.02-.58.14-.74.14-.14.53-.09.93-.14Z"/>
    <path class="cls-1" d="M61.89,135.04c.21.14.12.98.33,1.22,2.75,3.03,2.63,3.12,3.86-.5.19-.55.05-.99-.59-1.26-3.15-1.33-1.25-.74-2.72-.89-.19-.02-.49-.05-.55-.15-.45-.87-1.54-.78-2.24-1.22-.86,1.4.05,2.19.93,2.9.38-.05.79-.21.96-.09Z"/>
    <path class="cls-1" d="M60.83,141.87c.19.4.47.5.88.16,1.52-1.26,2.34-1.64,1.72-2.44-1.5-1.91-1.94-2.55-2.15-2.53-.83.09-.65-.36-.78-.83-.18-.63-.77-1.16-1.25-1.81-1.01,1.01-1.28,1.16-1.12,1.54.15.37.51,1.19.9,1.24.86.12,1.14.6.85,1.28-.38.9,0,1.38.94,3.38Z"/>
    <path class="cls-1" d="M63.61,129.93c.77.27,1.61.38,2.46.57.06-.23.08-.28.08-.32-.07-1.9.29-1.48-5.99-1.29-.51.02-.65.21-.62.67.07,1.57.08,1.5,1.64,2.02,4.56,1.51,5.18,2.65,5.18,1.19,0-.95.19-1.48-.75-1.6-.66-.08-1.28-.38-1.97.07-.88.58-1.81-.48-1.19-1.31.3-.39.73-.18,1.17-.02Z"/>
    <path class="cls-1" d="M46.05,124.15c-.47-.08-.69,0-.59.44.1.43.16,1.12.44,1.22.76.25,1.59.69,2.47.1.15-.1.63-.06.68.04.84,1.64-1.33,1.05-3.21.78-.05.15-.08.2-.07.24.07,1.91-.08,1.74,5.71.54,1.04-.21.48-.84.53-1.55.09-1.33.51-.7-5.95-1.8Z"/>
    <path class="cls-1" d="M48.93,132.32c-.68-.03-1.38.15-2.03.23-.04.16-.07.21-.06.24.47,1.76.21,1.64,5.26-.59.52-.23.71-.55.53-1.09-.68-2.03,1.16-1.94-6.45-.97.1.39.16.9.35,1.35.18.41,1.77.36,2.13-.08.75-.93,1.28.1,1.19.54-.09.44-.48.39-.93.37Z"/>
    <path class="cls-1" d="M65.06,124.7c-.78-1.92-.16-1.67-6.02-.35-.51.11-.59.38-.4.8.22.49.22,1.18.6,1.45.39.27,1.12.09,1.7.16,3.33.41,3.5.53,4.86.6-.28-.68-.36-1.32-.74-1.72-.4-.42-2.06-.16-2.59.19-.17.11-.62.14-.69.05-.16-.23-.28-.57-.22-.83.11-.5,1.38-.38,3.51-.36Z"/>
    <path class="cls-1" d="M52.98,138.4c-.62.21-.69.53-1.32,2.05-.45,1.08-.36,1.3.75,1.9,1.91,1.04,1.53.72,2.16-2.11.12-.52.11-.97-.43-1.35-.47-.34-.19-.92.46-1.11.49-.14,1.18-1.35.93-1.72-.14-.19-.46-.27-.69-.42-.23-.15-.43-.31-.82-.6-.34,1.01-1.16,1.76-.84,2.8.05.16-.06.51-.2.56Z"/>
    <path class="cls-1" d="M56.36,93.26c-.12.18-.49.48-.5.78-.01.48-.12.76-.66.96-1.36.5-.33,2.13.85,1.29.4-.28.72-.25,1.11,0,1.21.78,2.26-.87.85-1.32-.47-.15-.53-.38-.45-.79.12-.6-.33-1.01-1.21-.91Z"/>
    <path class="cls-1" d="M53.23,90.33c-.12.18-.49.48-.5.78-.01.48-.12.76-.66.96-1.36.5-.33,2.13.85,1.29.4-.28.72-.25,1.11,0,1.21.78,2.26-.87.85-1.33-.47-.15-.53-.38-.45-.79.12-.6-.33-1.01-1.21-.91Z"/>
    <path class="cls-1" d="M54.95,111.62c0-.52.27-.71.76-.9.33-.13.55-.5.71-.65-.12-.75-.7-1.04-1.27-.75-.53.27-.91.31-1.37-.09-.95-.83-2.23.79-1.01,1.27.55.21.62.48.46.97-.36,1.09,1.72,1.32,1.72.16Z"/>
    <path class="cls-1" d="M52.77,107.44c.12-.17.49-.46.52-.77.05-.48.23-.69.74-.83,1.47-.41.49-2.11-.69-1.37-.42.27-.74.21-1.1-.07-1.15-.91-2.33.67-1.02,1.24.44.19.51.4.38.81-.2.63.24,1.09,1.17.99Z"/>
    <path class="cls-1" d="M55.28,87.18c-.03.63-.39.81-.98.96-.49.13-.72.54-.53.94.14.28.51.46.73.64.81-.32.89-.6,1.76-.04,1.2.78,2.14-.72,1.11-1.21-.51-.24-.61-.5-.4-.99.45-1.07-1.64-1.36-1.69-.3Z"/>
    <path class="cls-1" d="M55.12,128.39c.32-.29.59-.33.97-.15.63.29,1.14.13,1.33-.37.18-.48-.09-.8-.72-1.01-.25-.09-.44-.33-.51-.38-.09-.87-.42-1.19-.96-1.09-1.18.22-.33,1.22-1.08,1.82-.54.44-.71.85-.35,1.25.34.38.84.38,1.32-.06Z"/>
    <path class="cls-1" d="M53.07,100.11c.01-.56.26-.81.86-.97,1.26-.34.38-2.03-.71-1.38-1.11.66-1.16-.54-2.36-.15-.23.07-.36.44-.54.7.21.25.31.52.5.59.63.2.66.54.52,1.07-.28,1.05,1.7,1.18,1.72.15Z"/>
    <path class="cls-1" d="M54.85,100.28c-.01.49-.32.64-.78.81-.34.13-.6.45-.77.59.07.77.62,1.11,1.19.85.58-.26.97-.27,1.43.16.86.81,2.22-.69,1.07-1.23-.51-.24-.62-.48-.43-.98.43-1.15-1.67-1.4-1.71-.2Z"/>
    <path class="cls-1" d="M57.57,131.48c1.1-.64-.1-2.09-1.08-1.08-.32.33-.6.37-1.02.2-1.3-.53-1.92,1.16-.51,1.4.45.08.59.28.6.68.02,1.22,1.98.84,1.63-.18-.16-.47-.07-.75.38-1.01Z"/>
  </g>
  <g>
    <path class="cls-1" d="M103.68,46.42c.8.59,1.68.4,2.53.31.76-.08.5-1.3.37-2.1-.06-.41-.37-.5-.77-.4-2.27.59-2.36.57-2.51.94-.18.47-.62.6-1.1.32-.53-.31-.92-.05-2.03.24-.87.22-.4.8-.49,2.1-.11,1.51-.13,1.52,1.58,1.8.25.04.57-.07.79-.2.81-.48.74.34,1.57.59.33.1.69.1,1.07.15,1.95.13,2.19-.05,2.18-1.64,0-.28-.02-.56-.55-.57-1.28-.03-1.89-.21-2.52.19-1.26.8-2.07-.64-1.51-1.37.32-.42,1.01-.63,1.39-.36Z"/>
    <path class="cls-1" d="M101.37,38.88c.76.29,1.46.07,2.17-.04,1.83-.29,1.94-.52,1.15-2.07-.17-.34-.4-.46-.77-.32-2.15.84-2.24.82-2.62,1.38-.52.77-.88-.09-1.38.08-2.53.87-1.83.68-1.32,3.22.07.35.24.54.62.58,1.83.17,2.14.21,2.46-.25.26-.37.85-.38,1.01,0,.31.75,1.13.71,2.8.8.99.05.45-.65.3-2.07-.08-.78-.61-.73-2.94-.34-.82.14-1.11.92-1.77.43-.41-.31-.5-.74-.28-1.14.08-.14.44-.3.57-.25Z"/>
    <path class="cls-1" d="M99.66,32.59c.76.16,1.34-.2,1.96-.46,1.58-.66,1.62-.92.49-2.39-.25-.32-.48-.41-.78-.18-1.72,1.29-1.81,1.28-2.01,1.95-.27.9-.82.08-1.23.35-2.07,1.39-1.45,1.12-.34,3.63.28.63.53.54,2.13.31.35-.05.62-.15.74-.56.14-.44.67-.56.91-.19.48.73,1.2.54,2.74.3.9-.14.23-.77-.27-2.23-.27-.77-.66-.69-2.75.21-.71.3-.77,1.18-1.49.78-.45-.25-.65-.68-.56-1.15.03-.16.32-.4.45-.37Z"/>
    <path class="cls-1" d="M102.12,54.23c.62.27,1.27.48,1.91.72.02-.04.03-.07.05-.11,2.07.26,2.23.17,2.35-1.3.05-.55.07-.97-.7-.9-.99.1-2,.13-2.99.22-.28.03-1.33.5-1.47.36-.47-.46-1.07-.28-1.61-.35-.41-.05-.58.11-.66.46-.34,1.35-.76,2.14-.62,2.51.12.36,1.56.89,1.94.72.3-.13.64-.17.72.13.13.47.31.49,2.3,1.09,1.83.56,1.86.67,2.46-1.31.1-.34-.01-.5-.44-.55-2.24-.24-2.87-.49-3.33-.27-1,.48-1.71-.55-1.05-1.24.31-.32.68-.4,1.15-.19Z"/>
    <path class="cls-1" d="M84.25,41.21c-.65-.23.5-.38-3.65-1.03-.76-.12-.77,1.01-.95,1.86-.09.4.12.63.63.66,2.38.15,2.61.12,2.96-.29.37-.44.87-.44,1.35.03.47.46.41.4,2.53.54.52.03.79-.14.82-.57.19-2.24,1.21-2.06-.81-3-.26-.12-.92-.46-1.4-.27-.45.18-.71.06-.94-.32-.21-.36-.42-.55-2.15-1.32-1.51-.68-1.6-.64-1.97.61-.29.96-.27.9,1.53,1.42,0,.05,0,.09.01.14,2.09.14,4.03-.04,2.9,1.68-.05.08-.57-.02-.84-.12Z"/>
    <path class="cls-1" d="M84.44,48.46c-.48-.24-1.04-.09-1.82,0-1.69.19-1.84.49-.84,1.7.29.36.65.54,1.19.46.68-.11,1.37-.18,2.03-.33.77-.17.6-1.19,1.63-.63.42.23.72.12,2.09-.34.43-.15.5-.41.34-.77-1.15-2.53-.26-2.47-2.31-2.76-.63-.09-1-.22-1.4.13-.3.26-.85.24-1.05-.16-.23-.46-.54-.42-1.92-.6,0,0,0,.01,0,.02-.68-.09-1.73-.26-1.85-.13-.19.22-.31.57-.24.85.12.5.26,1.07.65,1.46.31.32,2.58,0,2.96-.32.47-.4,1.01-.37,1.59-.13,1.11.47.63,2.39-1.06,1.56Z"/>
    <path class="cls-1" d="M85.28,35.04c-3.82-2.77-3.84-1.43-4.08-.22-.07.37.05.6.51.74,2.32.69,2.45.9,2.89.56.29-.22.72-.16.82.17.15.52.46.5,2.75,1,.37.12.68-.02.72-.54.09-1.38,1.42-1.64-.67-3.12-.11-.07-.19-.18-.31-.23-.28-.1-.57-.22-.86-.23-.57-.03-.92-.31-1-.77-.14-.84-.76-1.29-1.27-1.78-.99-.93-1.07-.93-1.74.1q-.72,1.09.61,1.8c.67.36,1.72.7,2.37.87.59.15,1.05.76.88,1.24-.22.61-1.07.8-1.62.4Z"/>
    <path class="cls-1" d="M93.79,24.44c.04-.4-.17-.64-.63-.65-2.98-.1-3.54-.25-3.24.81.88,3.08,1,3.23,1.55,3.7.51.44.44,1.1-.19,1.34-.24.09-.5.14-.85.23.75,1.63.64,1.58,1.87,1.57.36,0,.85.13,1.04-.02.24-.2.24-.63.34-.96.09-.29.31-.58-.32-.82-.75-.28-.84-.8-.35-1.36.61-.71.51-.82.78-3.84Z"/>
    <path class="cls-1" d="M95,30.02c-.18.04-.54-.13-.58-.06-.22.29-.41.62-.5.97-.26.97.04.9,1.8,2.02.35-.52.71-1.02,1.01-1.54.29-.5-.45-1.06.46-1.15.35-.03.35,0,1.95-2.81.18-.32.14-.65-.19-.9-1.8-1.34-2.63-2.12-2.89-1.12-1,3.77-.71,2.76-.46,3.55.16.5.47.79-.59,1.04Z"/>
    <path class="cls-1" d="M87.44,25.27c-.16-.37-.46-.42-.78-.2-2.53,1.81-2.13,1.43-.63,3.77.23.36.5.65.99.77.96.23.38,1.06.63,1.44.37.56.77,1.1,1.19,1.63.21.27.44.27.7.01.46-.44,1.36-1,1.27-1.21-.74-1.75-.71-1.33-1.57-1.48-.81-.01-1.06-.47-.68-1.07.3-.47.26-.44-1.12-3.65Z"/>
    <path class="cls-1" d="M89.92,84.64c-.55.27-.48.17-1.5,3.27-.13.41-.01.73.54.79,3.22.35,4.22.6,4.07-.59-.33-2.57-.22-2.89-.85-3.35-.63-.47-.65-.94.02-1.33.15-.09.32-.15.52-.24-.58-2.17-.09-1.22-2.18-1.82-.48.99-.82,1.4-.4,1.76.68.6.61,1.09-.22,1.5Z"/>
    <path class="cls-1" d="M86.62,54.54c-.96-.08-1.67.34-2.44.64-.91.36.57,2.29,2.57.8.32-.24.2-.59,1.05-.86.22-.07.5-.03.7-.12.33-.16.6-.4.93-.58.54-.29.6-.59.08-.99-.84-.64-.42-1.51-2.11-1.33-.58.06-1.22-.03-1.57.54-.26.43-.91-.09-1.36-.34-2.03.02-2.72-.12-2.35.56.58,1.05.65,1.5,1.31,1.28.81-.26,1.74-.3,2.39-.89.16-.14.77-.11,1,.04.26.17.41.56.43.85,0,.14-.41.41-.63.39Z"/>
    <path class="cls-1" d="M97.76,85.44c.19.32.59.33.82,0,2.03-2.89,2.09-3,1.96-3.38-.2-.59-1.97-1.67-2.71-1.74-.15-.01-.36-.2-.42-.35-.39-.85-1.33-1.16-1.96-1.69-1.04,1.35-.31,2.46.45,3.49.4.05.79,0,.93.14.17.17.24.54.14.74-.48,1.07.27,1.91.78,2.78Z"/>
    <path class="cls-1" d="M86.02,81.85c.21-.24.12-1.08.33-1.22.17-.11.58.05.96.09.89-.71,1.79-1.5.93-2.9-.7.44-1.79.35-2.24,1.22-.05.1-.35.13-.55.15-1.45.16.42-.43-2.72.89-.63.27-.77.71-.59,1.26,1.24,3.62,1.12,3.53,3.86.5Z"/>
    <path class="cls-1" d="M89.21,82.8c.4-.05.75-.87.9-1.24.16-.38-.11-.53-1.12-1.54-.47.65-1.06,1.18-1.25,1.81-.14.47.05.92-.78.83-.21-.02-.65.62-2.15,2.53-.62.8.2,1.18,1.72,2.44.41.34.69.25.88-.16.94-2,1.32-2.48.94-3.38-.29-.69,0-1.17.85-1.28Z"/>
    <path class="cls-1" d="M84.62,76.85c-.68-.45-1.31-.15-1.97-.07-.94.12-.75.65-.75,1.6,0,1.46.62.32,5.18-1.19,1.56-.52,1.56-.46,1.64-2.02.02-.47-.11-.66-.62-.67-6.28-.19-5.92-.61-5.99,1.29,0,.04.02.09.08.32.85-.19,1.69-.31,2.46-.57.44-.15.88-.37,1.17.02.63.83-.31,1.88-1.19,1.31Z"/>
    <path class="cls-1" d="M96.78,73.1c5.79,1.2,5.64,1.37,5.71-.54,0-.04-.03-.09-.08-.24-1.86.26-4.05.86-3.21-.78.05-.1.53-.14.68-.04.88.59,1.71.16,2.47-.1.28-.09.34-.78.44-1.22.1-.43-.12-.52-.59-.44-6.45,1.1-6.04.47-5.95,1.8.05.71-.5,1.33.53,1.55Z"/>
    <path class="cls-1" d="M99.58,77.01c.36.44,1.95.5,2.13.08.2-.46.26-.97.35-1.35-7.61-.97-5.76-1.07-6.45.97-.18.54.01.86.53,1.09,5.05,2.23,4.79,2.35,5.26.59,0-.04-.02-.08-.06-.24-.65-.08-1.35-.26-2.03-.23-.44.02-.83.07-.93-.37-.09-.44.44-1.47,1.19-.54Z"/>
    <path class="cls-1" d="M85.79,71.43c-.53-.35-2.19-.62-2.59-.19-.38.4-.47,1.04-.74,1.72,1.35-.07,1.53-.19,4.86-.6.57-.07,1.31.1,1.7-.16.38-.26.38-.96.6-1.45.19-.42.11-.69-.4-.8-5.87-1.32-5.23-1.59-6.02.35,2.13-.02,3.4-.15,3.51.36.06.26-.06.6-.22.83-.07.09-.52.07-.69-.05Z"/>
    <path class="cls-1" d="M94.22,80.64c-.39.28-.59.45-.82.6-.23.15-.55.23-.69.42-.26.36.43,1.58.93,1.72.66.19.93.77.46,1.11-.53.39-.54.83-.43,1.35.62,2.83.25,3.15,2.16,2.11,1.11-.61,1.2-.82.75-1.9-.63-1.52-.7-1.84-1.32-2.05-.13-.05-.25-.39-.2-.56.32-1.03-.5-1.78-.84-2.8Z"/>
    <path class="cls-1" d="M90.22,40.56c-1.41.46-.36,2.1.85,1.32.39-.25.72-.28,1.11,0,1.18.84,2.21-.79.85-1.29-.54-.2-.64-.47-.66-.96,0-.3-.38-.6-.5-.78-.88-.1-1.33.31-1.21.91.08.4.02.63-.45.79Z"/>
    <path class="cls-1" d="M93.36,37.62c-1.41.46-.36,2.1.85,1.32.39-.25.72-.28,1.11,0,1.18.84,2.21-.79.85-1.29-.54-.2-.64-.47-.66-.96,0-.3-.38-.6-.5-.78-.88-.1-1.33.31-1.21.91.08.4.02.63-.45.79Z"/>
    <path class="cls-1" d="M95.47,56.09c1.22-.47-.06-2.1-1.01-1.27-.46.4-.83.36-1.37.09-.57-.29-1.14,0-1.27.75.16.15.37.52.71.65.49.2.76.39.76.9,0,1.16,2.08.93,1.72-.16-.16-.49-.09-.75.46-.97Z"/>
    <path class="cls-1" d="M97.02,51.23c1.31-.57.13-2.14-1.02-1.24-.36.29-.68.34-1.1.07-1.18-.74-2.16.96-.69,1.37.51.14.69.36.74.83.03.31.4.6.52.77.93.1,1.37-.36,1.17-.99-.13-.41-.06-.62.38-.81Z"/>
    <path class="cls-1" d="M90.87,34.07c-1.04.49-.1,1.99,1.11,1.21.87-.56.95-.28,1.76.04.22-.19.6-.37.73-.64.2-.4-.03-.8-.53-.94-.58-.16-.95-.33-.98-.96-.05-1.05-2.15-.76-1.69.3.21.49.11.75-.4.99Z"/>
    <path class="cls-1" d="M92.15,73.84c.39-.18.66-.14.97.15.49.44.98.44,1.32.06.35-.39.19-.81-.35-1.25-.75-.6.1-1.6-1.08-1.82-.54-.1-.87.22-.96,1.09-.07.05-.26.3-.51.38-.64.21-.9.53-.72,1.01.19.49.7.66,1.33.37Z"/>
    <path class="cls-1" d="M97.41,44.49c.19-.06.3-.33.5-.59-.19-.26-.31-.62-.54-.7-1.2-.38-1.25.81-2.36.15-1.09-.65-1.96,1.04-.71,1.38.6.16.85.41.86.97.02,1.03,2,.9,1.72-.15-.14-.53-.11-.87.52-1.07Z"/>
    <path class="cls-1" d="M91.25,47.05c-1.15.54.21,2.04,1.07,1.23.46-.43.85-.42,1.43-.16.57.26,1.12-.07,1.19-.85-.17-.14-.42-.46-.77-.59-.46-.17-.77-.32-.78-.81-.04-1.2-2.13-.94-1.71.2.19.5.07.74-.43.98Z"/>
    <path class="cls-1" d="M92.69,78.27c0-.4.15-.6.6-.68,1.41-.24.79-1.93-.51-1.4-.42.17-.7.13-1.02-.2-.98-1.01-2.19.44-1.08,1.08.45.26.55.54.38,1.01-.35,1.02,1.62,1.4,1.63.18Z"/>
  </g>
</svg>