<svg xmlns="http://www.w3.org/2000/svg" version="1.1" viewBox="-5.0 -10.0 110.0 135.0">
 <path d="m61.871 15.266c0 4.0078-3.2461 7.2539-7.25 7.2539s-7.2539-3.2461-7.2539-7.2539c0-4.0039 3.25-7.25 7.2539-7.25s7.25 3.2461 7.25 7.25"/>
 <path d="m62.703 30.844h0.23438l-1.25 7.6875c-0.625 0.0625-1.2344 0.14062-1.8594 0.20312-0.93359 0.10938-1.8828-0.019531-2.75-0.375-2.7188-1.0938-5.4375-2.2031-8.1719-3.2969-0.60938-0.25-1.3086-0.078125-1.7344 0.42188-2.375 2.7031-4.75 5.4062-7.125 8.1094-0.125 0.15234-0.21875 0.32812-0.28125 0.51562-0.078125 0.20312-0.11328 0.42188-0.09375 0.64062 0.35938 4.125 0.67188 7.5938 0.96875 11.062l0.1875 2.0625c-0.003906 1.1406-0.47266 2.2266-1.2969 3.0156-3.2188 3.7812-5.5 6.75-8.0938 9.2812l-6.0625-4.2969c2-3.25 3.625-6.5938 5.625-10.578 0.28125-0.39844 0.37891-0.90234 0.26562-1.375-0.90625-2.4688-2.0625-5.6406-3.25-8.8594-0.49219-1.3359-0.54297-2.793-0.14062-4.1562 1.5625-5.4727 4.7305-10.348 9.0938-14 1.9609-1.6055 4.1367-2.9258 6.4688-3.9219 1.5391-0.66797 3.2969-0.61719 4.7969 0.14062 0.90625 0.46875 1.8125 0.9375 2.7344 1.4531 3.1406 1.7188 6 3.5 8.5781 5.2656 0.92188 0.64844 2.0234 0.99609 3.1562 1z"/>
 <path d="m73.438 36.25c-0.51562 0.64844-1.2617 1.0742-2.0781 1.1875l0.98438-6.0938c0.94531 0.50391 1.5898 1.4375 1.7344 2.5 0.12109 0.85547-0.10938 1.7227-0.64062 2.4062z"/>
 <path d="m57.391 64.984v0.03125l-0.90625 5.4844h-5.6875c-1.2812-3.375-2.5625-6.75-3.8438-10.125-0.34766-0.91797-1.0156-1.6758-1.875-2.1406-0.375-0.20312-0.76562-0.40625-1.1406-0.625l-1.0781-12.25c1.7695 0.80859 3.4883 1.7305 5.1406 2.7656 2.0586 1.2969 4.0039 2.7734 5.8125 4.4062 1.1055 1 1.8438 2.3398 2.0938 3.8125 0.48438 2.875 0.98438 5.7656 1.4844 8.6406z"/>
 <path d="m12.867 56.375c0 2.082-3.125 2.082-3.125 0 0-2.0859 3.125-2.0859 3.125 0"/>
 <path d="m18.621 59.711c0 2.082-3.125 2.082-3.125 0 0-2.0859 3.125-2.0859 3.125 0"/>
 <path d="m13.648 68.855c0 2.082-3.125 2.082-3.125 0 0-2.0859 3.125-2.0859 3.125 0"/>
 <path d="m38.078 73.625h17.906l-0.51562 3.125h-17.391c-0.86328-0.003906-1.5625-0.70312-1.5625-1.5625-0.003906-0.41797 0.15625-0.81641 0.45312-1.1094 0.29297-0.29297 0.69141-0.45703 1.1094-0.45312z"/>
 <path d="m89.719 73.188-1.625 1.4062c-1.5977 1.3906-3.6484 2.1562-5.7656 2.1562h-17.359l0.5-3.125h16.859c1.3633-0.003906 2.6836-0.5 3.7188-1.3906l1.625-1.4062c0.30859-0.27344 0.71484-0.41406 1.1289-0.38672 0.41406 0.027344 0.80078 0.21484 1.0742 0.52734 0.5625 0.65625 0.49609 1.6484-0.15625 2.2188z"/>
 <path d="m58.641 90.016c0.042969 0.41016-0.078125 0.82422-0.33984 1.1445-0.26172 0.32031-0.64062 0.51953-1.0508 0.55859l-2.1406 0.21875c-0.29297 0.03125-0.58594 0.046875-0.875 0.046875-1.8203 0-3.5977-0.56641-5.0781-1.625l-36.125-25.562c-0.33984-0.23828-0.57031-0.60156-0.64062-1.0078-0.070313-0.41016 0.023437-0.82812 0.26562-1.1641 0.5-0.70703 1.4766-0.875 2.1875-0.375l8.8281 6.25 5.3594 3.7969 4.375 3.0938 6.3281 4.4844 11.219 7.9375c1.1133 0.79297 2.4805 1.1562 3.8438 1.0156l2.1406-0.21875c0.85547-0.082031 1.6172 0.54688 1.7031 1.4062z"/>
 <path d="m69.922 26.844-0.65625 4.0625-1.125 6.8906-5.8281 35.828-0.5 3.125-0.51562 3.125c-0.12891 0.75391-0.78125 1.3086-1.5469 1.3125-0.085938 0-0.16797-0.003906-0.25-0.015625-0.85156-0.14453-1.4297-0.94531-1.2969-1.7969l0.42188-2.625 0.51562-3.125 5.7656-35.469 1.1875-7.2812 0.73438-4.5312c0.13672-0.85547 0.94141-1.4375 1.7969-1.2969 0.85156 0.13672 1.4336 0.94141 1.2969 1.7969z"/>
<text x="0.0" y="117.5" font-size="5.0" font-weight="bold" font-family="Arbeit Regular, Helvetica, Arial-Unicode, Arial, Sans-serif" fill="#000000">Created by Andy Horvath</text><text x="0.0" y="122.5" font-size="5.0" font-weight="bold" font-family="Arbeit Regular, Helvetica, Arial-Unicode, Arial, Sans-serif" fill="#000000">from Noun Project</text></svg>